<svg width="40" height="40" viewBox="0 0 40 40" fill="none" xmlns="http://www.w3.org/2000/svg">
<path d="M22.9706 8.68001V13.2617C22.9706 13.6331 23.0766 13.9893 23.2652 14.252C23.4539 14.5146 23.7098 14.6622 23.9766 14.6622H28.0009M18.8842 23.6359L20 24.8656L22.0077 22.5763M26.4286 32H13.5714C12.8894 32 12.2354 31.719 11.7532 31.219C11.2709 30.7189 11 30.0406 11 29.3333V10.6667C11 9.95942 11.2709 9.28115 11.7532 8.78105C12.2354 8.28095 12.8894 8 13.5714 8H22.5714L29 14.6667V29.3333C29 30.0406 28.7291 30.7189 28.2468 31.219C27.7646 31.719 27.1106 32 26.4286 32ZM20 18.0401C21.3515 19.2698 23.1155 20.3353 24.9181 20.2505C25.1806 21.1687 25.2609 22.1317 25.1543 23.0825C25.0477 24.0332 24.7563 24.9522 24.2975 25.7848C23.8387 26.6174 23.2219 27.3467 22.4836 27.9293C21.7454 28.5119 20.9008 28.936 20 29.1763C19.0992 28.936 18.2546 28.5119 17.5164 27.9293C16.7781 27.3467 16.1613 26.6174 15.7025 25.7848C15.2437 24.9522 14.9523 24.0332 14.8457 23.0825C14.7391 22.1317 14.8194 21.1687 15.0819 20.2505C16.8845 20.3353 18.6485 19.2698 20 18.0401Z" stroke="#3A3A3A" stroke-linecap="round" stroke-linejoin="round"/>
</svg>
