<svg width="22" height="21" viewBox="0 0 22 21" fill="none" xmlns="http://www.w3.org/2000/svg">
    <path d="M10.5 15.9203L7.5 14.4203M7.5 14.4203L1.5 17.4203V4.4201L7.5 1.42004M7.5 14.4203V1.42004M7.5 1.42004L13.5 4.4201M13.5 4.4201L19.5 1.42004V8.92018M13.5 4.4201V9.9202M17.5 15.4203V15.4303M19.621 17.541C20.0406 17.1215 20.3265 16.5869 20.4423 16.0049C20.5581 15.423 20.4988 14.8197 20.2717 14.2715C20.0447 13.7232 19.6602 13.2546 19.1668 12.9249C18.6734 12.5952 18.0934 12.4193 17.5 12.4193C16.9066 12.4193 16.3266 12.5952 15.8332 12.9249C15.3398 13.2546 14.9553 13.7232 14.7283 14.2715C14.5012 14.8197 14.4419 15.423 14.5577 16.0049C14.6735 16.5869 14.9594 17.1215 15.379 17.541C15.797 17.96 16.504 18.586 17.5 19.42C18.551 18.53 19.259 17.904 19.621 17.541Z" stroke="#3A3A3A" stroke-width="1.5" stroke-linecap="round" stroke-linejoin="round"/>
</svg>
